<svg xmlns="http://www.w3.org/2000/svg" xmlns:xlink="http://www.w3.org/1999/xlink" viewBox="0 0 70.46 67.15"><defs><style>.cls-1{fill:none;}.cls-2{fill:#1d1d1b;}.cls-3{clip-path:url(#clip-path);}</style><clipPath id="clip-path" transform="translate(0)"><rect class="cls-1" width="70.46" height="67.15"/></clipPath></defs><title>Asset 1</title><g id="Layer_2" data-name="Layer 2"><g id="Ebene_1" data-name="Ebene 1"><polygon class="cls-2" points="5.1 45.95 5.1 47.97 8.59 47.97 8.59 49.25 5.1 49.25 5.1 52.82 3.66 52.82 3.66 44.67 8.81 44.67 8.81 45.95 5.1 45.95"/><polygon class="cls-2" points="11.7 49.25 11.7 52.82 10.26 52.82 10.26 44.67 11.7 44.67 11.7 47.97 15.34 47.97 15.34 44.67 16.78 44.67 16.78 52.82 15.34 52.82 15.34 49.25 11.7 49.25"/><g class="cls-3"><path class="cls-2" d="M25.1,46.77a2.67,2.67,0,0,0-2.11-1c-.95,0-1.5.47-1.5,1.09s.4.83,1.32,1l1,.21c1.52.35,2.62.84,2.62,2.33S25.19,53,23.15,53A4.31,4.31,0,0,1,19.6,51.3l1.2-.86a2.88,2.88,0,0,0,2.42,1.24c1.09,0,1.66-.45,1.66-1.1s-.57-.88-1.4-1l-1.09-.24C21.06,49,20,48.43,20,47S21.3,44.52,23,44.52a4.17,4.17,0,0,1,3.17,1.36Z" transform="translate(0)"/><path class="cls-2" d="M31.06,50.79V50.1a4.91,4.91,0,0,1-.78.2l-.52.11c-.65.13-.94.3-.94.76s.31.78,1,.78a1.1,1.1,0,0,0,1.26-1.16m1.31.73c0,.35.05.48.37.48h.07v.89a2.4,2.4,0,0,1-.64.06c-.53,0-.9-.14-1-.58h0a2.1,2.1,0,0,1-1.71.61,1.77,1.77,0,0,1-2-1.8,1.56,1.56,0,0,1,.32-1,2.82,2.82,0,0,1,1.69-.78l1.26-.21c.3-.06.36-.09.36-.3v-.1c0-.48-.31-.72-1-.72s-1.16.32-1.15,1L27.61,49c0-1.4,1.13-2,2.49-2s2.27.42,2.27,1.68Z" transform="translate(0)"/></g><rect class="cls-2" x="34.16" y="44.67" width="1.37" height="8.15"/><polygon class="cls-2" points="41.81 47.13 41.81 48.19 38.76 51.62 41.81 51.62 41.81 52.82 36.96 52.82 36.96 51.77 40.06 48.33 37.07 48.33 37.07 47.13 41.81 47.13"/><g class="cls-3"><path class="cls-2" d="M46.06,51.78c.87,0,1.45-.68,1.45-1.81s-.58-1.83-1.45-1.83S44.6,48.87,44.6,50s.59,1.81,1.46,1.81m-1.4.44v.6H43.3V44.67h1.36v3.07A2.15,2.15,0,0,1,46.34,47c1.55,0,2.53,1.25,2.53,3s-1,3-2.53,3a2,2,0,0,1-1.68-.75" transform="translate(0)"/><path class="cls-2" d="M50,47.11h1.36v3a2.88,2.88,0,0,0,.15,1.1.85.85,0,0,0,.87.51c.85,0,1.23-.66,1.23-1.59V47.11H55v5.71H53.6v-.73a1.94,1.94,0,0,1-1.71.88,1.81,1.81,0,0,1-1.4-.56c-.36-.4-.5-.8-.5-2.06Z" transform="translate(0)"/><path class="cls-2" d="M57.92,47.11V48a1.69,1.69,0,0,1,1.66-1h.22v1.39l-.39,0a1.25,1.25,0,0,0-1.34.78,3.11,3.11,0,0,0-.15,1.13v2.56H56.55V47.11Z" transform="translate(0)"/><path class="cls-2" d="M63.29,48.14c-.93,0-1.45.64-1.45,1.79s.52,1.77,1.45,1.77,1.45-.67,1.45-1.77-.54-1.79-1.45-1.79m-1.3,5c.06.53.3,1,1.29,1s1.4-.42,1.4-1.5v-.51h0a2,2,0,0,1-1.68.73c-1.55,0-2.52-1.13-2.52-2.87s.93-3,2.5-3a2.12,2.12,0,0,1,1.71.77v-.63h1.37V52.5a3.91,3.91,0,0,1-.18,1.37c-.36,1-1.24,1.33-2.64,1.33-1.72,0-2.57-.77-2.62-2Z" transform="translate(0)"/><path class="cls-2" d="M52.08,13.14a4.53,4.53,0,0,0-3.44-1.75A12.87,12.87,0,0,0,47,7a7,7,0,0,0,3.49-4.69.72.72,0,0,0-.61-.8h0a18.09,18.09,0,0,0-9.15-.19A12.29,12.29,0,0,0,34.88,0h-.05A12.22,12.22,0,0,0,29,1.36a18.13,18.13,0,0,0-9.16.19h0a.72.72,0,0,0-.6.8A7,7,0,0,0,22.69,7a12.88,12.88,0,0,0-1.63,4.35,4.51,4.51,0,0,0-3.43,1.75,6.91,6.91,0,0,0-1.2,4.24c0,7.66,7.39,18.94,17.7,19.45h1.44C45.89,36.32,53.28,25,53.28,17.38a7,7,0,0,0-1.2-4.24M46.22,5.86a10.87,10.87,0,0,0-.89-1,34.07,34.07,0,0,0,3.21-1.2,6.17,6.17,0,0,1-2.32,2.24M27.31,2.5c1,.14,1.56.3,1.57.3a.67.67,0,0,0,.57-.09,10.48,10.48,0,0,1,5.38-1.29h.05a10.59,10.59,0,0,1,5.37,1.29.68.68,0,0,0,.57.09s.63-.16,1.57-.3a17.24,17.24,0,0,1,5.27,0,37,37,0,0,1-3.53,1.25l-1.62.47-.09,0C39.11,5.15,36.4,6,34.86,9h0c-1.55-3-4.26-3.82-7.56-4.76l-.09,0-1.63-.47a36.85,36.85,0,0,1-3.52-1.25,17.5,17.5,0,0,1,5.26,0M21.17,3.62c1.12.49,2.19.87,3.2,1.2-.31.33-.61.68-.89,1a6.2,6.2,0,0,1-2.31-2.24m4.75,1.67.89.26c3.69,1,6.15,1.77,7.3,5.34h0a6.74,6.74,0,0,0-2.19,1.94l-.1.12a3.79,3.79,0,1,0-3.78,4h0c2.23,0,3.72-1.76,4.92-3.16.65-.75,1.38-1.6,1.84-1.6h0c.46,0,1.2.85,1.84,1.6,1.2,1.4,2.69,3.13,4.9,3.16h.06a3.79,3.79,0,1,0-3.79-4l-.1-.12a6.62,6.62,0,0,0-2.18-1.94C36.74,7.32,39.2,6.6,42.9,5.55l.88-.26a11.39,11.39,0,0,1,3.64,7.77s0,0,0,.08a6,6,0,0,1-5.94,6,6.76,6.76,0,0,1-3.78-1,.8.8,0,0,0-.1-.41l-2.13-3.5a.7.7,0,0,0-.6-.34.71.71,0,0,0-.6.34l-2.14,3.49a.76.76,0,0,0-.1.41,6.73,6.73,0,0,1-3.78,1,6,6,0,0,1-5.95-6,.19.19,0,0,0,0-.08,11.48,11.48,0,0,1,3.64-7.77m4.51,7.83a2.39,2.39,0,0,1-2.38,2.38h0a2.38,2.38,0,1,1,2.38-2.38m8.85,0a2.38,2.38,0,1,1,2.37,2.38h0a2.38,2.38,0,0,1-2.37-2.38m-3.07,5-.16.45-1.19,3.34-1.2-3.35-.16-.44,1.07-1.75.29-.47.28.46Zm-18.37-.75A5.54,5.54,0,0,1,18.75,14a3.06,3.06,0,0,1,2.13-1.17c0,.33,0,.65,0,1,0,6.81,1.65,13.93,5.14,18.42-5-3.79-8.15-10.16-8.15-14.85m4.6.3a7.34,7.34,0,0,0,4.42,2.73c.11,2.21.85,10.34,3.82,14.34-4.8-2.58-7.56-9.86-8.24-17.07M34.85,35.42c-4.86,0-6.39-10.11-6.63-14.88h0a8.22,8.22,0,0,0,4.27-1.11l1.69,4.35c.1.28.36.94.66.94s.56-.66.67-.94l1.67-4.35a8.22,8.22,0,0,0,4.27,1.11h0c-.25,4.77-1.77,14.88-6.64,14.88M39,34.75c3-4,3.72-12.13,3.83-14.34a7.37,7.37,0,0,0,4.42-2.73c-.69,7.21-3.45,14.49-8.25,17.07m4.69-2.52c3.5-4.49,5.15-11.61,5.15-18.42,0-.33,0-.65,0-1A3.1,3.1,0,0,1,51,14a5.61,5.61,0,0,1,.91,3.38c0,4.69-3.19,11.06-8.16,14.85" transform="translate(0)"/><path class="cls-2" d="M26.43,13.15a1.63,1.63,0,1,0,1.63-1.63,1.63,1.63,0,0,0-1.63,1.63m2.67-.29a.81.81,0,1,1-.8-.81.8.8,0,0,1,.8.81" transform="translate(0)"/><path class="cls-2" d="M40.06,13.15a1.63,1.63,0,1,0,1.63-1.63,1.63,1.63,0,0,0-1.63,1.63m2.67-.29a.81.81,0,1,1-.8-.81.8.8,0,0,1,.8.81" transform="translate(0)"/><path class="cls-2" d="M67.1,62h1.11V66a1.6,1.6,0,0,0,.07.55c.18.48.65.6,1.19.6a4.19,4.19,0,0,0,1-.12v-.78a4.18,4.18,0,0,1-.66.07c-.31,0-.44-.06-.51-.19a1,1,0,0,1-.09-.54V62h1.26v-.76H69.2V59l-1,.22v2.06H67.1Zm-.37-.87a1.58,1.58,0,0,0-.32,0,1.78,1.78,0,0,0-1.73,1.22V61.28h-1V67h1V64a1.77,1.77,0,0,1,1.68-1.92,2.4,2.4,0,0,1,.37,0ZM60.5,63.73H58l.91-2.68c.16-.44.25-.76.31-1h0a6.63,6.63,0,0,0,.31,1Zm-2.78.91H60.8L61.62,67h1.14l-2.87-8.16H58.71L55.8,67h1.1Zm-4,.49c0,.89-.7,1.24-1.42,1.24s-1.21-.35-1.21-1a.71.71,0,0,1,.3-.62,3,3,0,0,1,1.11-.37l.56-.12a4,4,0,0,0,.66-.17Zm1.58,1.25h-.13c-.35,0-.49-.12-.49-.51V63c0-1.43-.86-1.8-2.13-1.8s-2.37.63-2.35,1.91l1,.11c0-.69.31-1.21,1.34-1.21s1.22.43,1.22,1v.12c0,.24-.12.29-.48.35l-.78.13a5.21,5.21,0,0,0-1.67.49A1.42,1.42,0,0,0,50,65.42,1.71,1.71,0,0,0,52,67.15a1.93,1.93,0,0,0,1.76-.79h0c0,.47.26.77,1,.77a3.26,3.26,0,0,0,.56,0Zm-6.6-7.55h-1v1.28h1Zm0,2.45h-1V67h1Zm-3.79,2.85c0,1.45-.78,2.17-1.78,2.17s-1.65-.81-1.65-2.17S42.12,62,43.13,62s1.75.72,1.75,2.16m-2,3a2,2,0,0,0,1.87-1V67h1V58.83h-1v3.29a2,2,0,0,0-1.83-1c-1.43,0-2.52,1.08-2.52,3s1,3,2.48,3M36.85,62c.9,0,1.45.62,1.54,1.62H35.18A1.68,1.68,0,0,1,36.85,62m1.81,3.35a1.92,1.92,0,0,1-1.7,1,1.78,1.78,0,0,1-1.81-1.9h4.27v-.22c0-1.7-.85-3-2.57-3a2.73,2.73,0,0,0-2.71,3c0,1.91,1.09,3,2.72,3a2.91,2.91,0,0,0,2.52-1.32ZM29.37,67l1.79-5.67c.16-.47.39-1.38.39-1.38h0v7h1V58.83H31l-1.79,5.54c-.18.56-.31,1.06-.36,1.26-.06-.17-.21-.7-.4-1.25l-1.86-5.55H25.12V67h1V61.76c0-.72,0-1.7,0-1.7h0s.24.9.4,1.35L28.38,67Zm-6.14-8.16h-1v1.28h1Zm0,2.45h-1V67h1ZM17.81,62h1.1V66a1.89,1.89,0,0,0,.07.55c.18.48.65.6,1.19.6a4.28,4.28,0,0,0,1-.12v-.78a4.31,4.31,0,0,1-.66.07c-.32,0-.45-.06-.52-.19a1.11,1.11,0,0,1-.08-.54V62h1.26v-.76H19.91V59l-1,.22v2.06h-1.1Zm-.95-3.21h-1V67h1Zm-7.5,5.71c0,1.24.13,1.65.49,2.06a1.87,1.87,0,0,0,1.43.54,1.92,1.92,0,0,0,1.82-1V67h1V61.28h-1v3.28a1.5,1.5,0,0,1-1.45,1.7,1.07,1.07,0,0,1-1.1-.54,2.39,2.39,0,0,1-.2-1.15V61.28h-1ZM4.26,67l1.79-5.67c.15-.47.38-1.38.38-1.38h0v7h1V58.83H5.93L4.14,64.37c-.18.56-.31,1.06-.36,1.26-.06-.17-.22-.7-.41-1.25L1.51,58.83H0V67H1V61.76c0-.72,0-1.7,0-1.7H1s.24.9.39,1.35L3.26,67Z" transform="translate(0)"/></g></g></g></svg>